<svg width="601" height="601" viewBox="0 0 601 601" fill="none" xmlns="http://www.w3.org/2000/svg">
  <style>
    path {
      fill: #DB1F48;
    }
    @media (prefers-color-scheme: dark) {
      path {
        fill: #B8C4BB;
      }
    }
  </style>
<path fill-rule="evenodd" clip-rule="evenodd" d="M434.317 500.363C396.061 526.028 350.029 541 300.5 541C249.53 541 202.264 525.144 163.364 498.096L296.528 170.983L361.347 325.685H278.379L252.163 391.944H389.004L434.317 500.363ZM492.506 445.346L339.453 92.3351H257.348L107.861 444.505C77.8031 404.36 60 354.509 60 300.5C60 167.676 167.676 60 300.5 60C433.324 60 541 167.676 541 300.5C541 354.887 522.947 405.057 492.506 445.346ZM601 300.5C601 466.462 466.462 601 300.5 601C134.538 601 0 466.462 0 300.5C0 134.538 134.538 0 300.5 0C466.462 0 601 134.538 601 300.5Z" fill="black"/>
</svg>
